<svg xmlns="http://www.w3.org/2000/svg" viewBox="0 0 32 32">
  <rect width="32" height="32" rx="6" fill="#6b4226"/>
  <path d="M16 4c-3 4-8 8-8 14a8 8 0 0016 0c0-6-5-10-8-14z" fill="#8b6914" opacity="0.9"/>
  <path d="M16 4c-2 3-5 6-6.5 10a8 8 0 0013 0C21 10 18 7 16 4z" fill="#c49a2a" opacity="0.7"/>
  <path d="M16 8c-1.5 2.5-3.5 5-4 8a4.5 4.5 0 009 0c-.5-3-2.5-5.5-4-8z" fill="#daa520" opacity="0.6"/>
  <line x1="16" y1="10" x2="16" y2="26" stroke="#6b4226" stroke-width="1.2" stroke-linecap="round" opacity="0.5"/>
</svg>
